<svg width="400" height="400" viewBox="0 0 400 400" fill="none" xmlns="http://www.w3.org/2000/svg">
  <rect width="400" height="400" rx="80" fill="#111111"/>
  
  <path d="M130 100 H260 C300 100, 320 130, 290 180 L250 240 C230 270, 200 280, 160 280 H110 L130 220 H160 C180 220, 195 210, 205 195 L225 165 C235 150, 230 140, 210 140 H143 L130 100 Z" 
        fill="#FF1801" />
  
  <path d="M100 280 L80 340 H140 L160 280 H100 Z" fill="white"/>
  <path d="M170 280 L150 340 H210 L230 280 H170 Z" fill="white" opacity="0.8"/>
  <path d="M240 280 L220 340 H280 L300 280 H240 Z" fill="white" opacity="0.4"/>

  <text x="200" y="380" font-family="Arial, sans-serif" font-weight="900" font-style="italic" font-size="32" fill="white" text-anchor="middle" letter-spacing="4">PRIX SIX</text>
</svg>